<svg xmlns="http://www.w3.org/2000/svg" width="417" height="417" viewBox="0 0 417 417" version="1.1"><path d="M 262.679 102.265 C 261.826 104.061, 260.683 106.705, 260.137 108.140 C 259.402 110.072, 258.179 110.932, 255.426 111.448 C 251.246 112.232, 248.906 113.564, 241 119.658 C 237.975 121.989, 233.775 124.617, 231.667 125.496 C 228.494 126.821, 228.042 127.346, 229.040 128.548 C 229.703 129.347, 231.090 130, 232.122 130 C 233.155 130, 234 130.587, 234 131.304 C 234 134.905, 220.106 144, 214.605 144 C 211.622 144, 210.979 146.908, 213.500 149 C 214.325 149.685, 215 150.578, 215 150.986 C 215 152.591, 202.741 157.167, 198.439 157.167 C 192.962 157.167, 192.611 158.900, 197.216 163.202 C 200.193 165.982, 200.880 166.176, 206.466 165.811 C 219.440 164.962, 231.805 154.639, 243.970 134.500 C 251.628 121.821, 259.387 115.314, 265.636 116.328 C 267.466 116.625, 269.202 116.481, 269.495 116.008 C 270.759 113.963, 288.662 120.749, 294.632 125.536 L 297.500 127.836 294.640 130.837 C 292.189 133.410, 291.261 133.759, 288.140 133.281 C 286.138 132.974, 283.970 132.307, 283.322 131.798 C 282.574 131.212, 281.112 131.407, 279.322 132.333 C 273.878 135.146, 269.670 134.826, 266.452 131.354 C 264.053 128.765, 264 128.755, 264 130.920 C 264 137.620, 268.603 139.737, 276.734 136.776 C 282.313 134.744, 282.739 134.723, 285.945 136.323 C 287.794 137.245, 289.746 138, 290.282 138 C 291.412 138, 299.097 131.315, 300.340 129.251 C 302.145 126.253, 291.083 118.123, 278.276 113.035 C 273.753 111.238, 269.669 109.257, 269.201 108.634 C 268.733 108.010, 267.803 105.588, 267.135 103.250 C 266.467 100.912, 265.539 99, 265.074 99 C 264.609 99, 263.531 100.469, 262.679 102.265 M 264 144.393 C 264 144.609, 264.728 148.309, 265.619 152.614 C 268.418 166.147, 266.272 175.877, 258.527 184.771 L 254.808 189.043 250.654 184.882 L 246.500 180.722 245.917 191.611 C 245.596 197.600, 244.528 205.650, 243.544 209.500 C 241.896 215.949, 241.863 217.601, 243.127 230.500 L 244.500 244.500 248.388 244.819 L 252.276 245.137 251.715 240.819 C 251.407 238.443, 250.634 232.675, 249.998 228 C 247.869 212.351, 250.186 205.071, 260.657 194.500 C 270.406 184.657, 271.503 182.025, 271.487 168.500 C 271.476 158.473, 271.210 156.904, 268.487 150.761 C 266.844 147.055, 265.163 144.017, 264.750 144.011 C 264.337 144.005, 264 144.177, 264 144.393 M 163.132 166.500 C 159.727 169.576, 158.606 170.003, 153.879 170.022 C 146.756 170.051, 140.925 172.813, 133.956 179.461 C 130.178 183.064, 126.906 185.218, 124.033 185.991 C 118.465 187.490, 119.949 189.165, 127.390 189.782 C 134.546 190.376, 141.680 188.662, 151.500 183.989 C 158.864 180.485, 159.721 179.757, 162.274 174.841 C 163.799 171.903, 165.978 168.037, 167.116 166.250 C 169.823 161.997, 167.989 162.112, 163.132 166.500 M 267.266 194.919 L 263.116 199.737 266.144 202.618 C 271.679 207.886, 271.669 208.420, 265.886 215.547 C 263.007 219.096, 260.328 222, 259.932 222 C 258.319 222, 258.056 225.436, 259.500 227.641 C 261.349 230.462, 262.020 230.543, 264.566 228.250 C 265.635 227.287, 269.433 224.030, 273.005 221.011 C 280.998 214.257, 283.997 210.967, 283.999 208.954 C 284 207.292, 274.982 193.060, 272.759 191.215 C 271.711 190.345, 270.505 191.158, 267.266 194.919 M 184.835 195.250 C 180.132 201.247, 178.447 202.555, 170.211 206.598 C 164.701 209.304, 163.043 210.583, 163.419 211.839 C 163.693 212.752, 165.086 219.575, 166.515 227 C 169.900 244.595, 170.166 245.207, 174.257 244.813 C 176.041 244.641, 177.429 244.050, 177.343 243.500 C 175.471 231.593, 174 220.245, 174 217.718 C 174 214.952, 174.601 214.174, 178.250 212.218 C 180.588 210.964, 184.237 208.377, 186.360 206.469 C 188.484 204.561, 190.332 203, 190.468 203 C 190.604 203, 193.737 204.575, 197.431 206.500 C 203.789 209.814, 204.673 210, 214.073 210 C 219.533 210, 224 209.617, 224 209.149 C 224 208.681, 223.506 206.881, 222.902 205.149 C 221.820 202.046, 221.707 202, 215.152 201.976 C 207.454 201.949, 199.419 199.084, 193.178 194.141 C 190.997 192.413, 188.977 191, 188.690 191 C 188.403 191, 186.668 192.912, 184.835 195.250 M 189.898 209.761 C 187.679 215.584, 187.820 218.355, 191.004 231.518 L 194.266 245 197.633 245 C 199.485 245, 200.999 244.662, 200.999 244.250 C 200.998 243.838, 200.323 239.675, 199.500 235 C 197.403 223.097, 197.556 220.316, 200.500 216.818 C 203.617 213.113, 203.649 212, 200.640 212 C 199.341 212, 196.628 210.880, 194.611 209.511 L 190.942 207.021 189.898 209.761 M 70.672 270.663 C 70.577 270.753, 70.639 276.267, 70.809 282.917 C 71.089 293.870, 71.277 294.930, 72.809 294.187 C 75.645 292.812, 77.484 293.386, 77.820 295.750 C 77.995 296.988, 78.558 298, 79.070 298 C 79.581 298, 80.037 294.512, 80.082 290.250 L 80.163 282.500 81.673 285.967 C 82.503 287.874, 83.336 290.574, 83.522 291.967 C 83.709 293.360, 83.908 294.725, 83.963 295 C 84.018 295.275, 84.726 294.624, 85.536 293.554 C 86.714 291.996, 87.256 291.857, 88.254 292.860 C 88.939 293.548, 89.500 295.099, 89.500 296.306 C 89.500 297.513, 89.939 298.614, 90.475 298.754 C 91.011 298.893, 91.493 296.643, 91.547 293.754 C 91.600 290.864, 92.381 287.150, 93.282 285.500 L 94.920 282.500 94.960 289.250 C 94.983 293.057, 95.436 296, 96 296 C 96.550 296, 97 295.325, 97 294.500 C 97 293.452, 98.056 293, 100.500 293 L 104 293 104 283.082 C 104 277.627, 104.230 272.564, 104.511 271.832 C 104.909 270.796, 103.355 270.500, 97.511 270.500 C 90.921 270.500, 90 270.723, 90 272.316 C 90 273.314, 89.491 275.083, 88.868 276.246 C 87.773 278.294, 87.693 278.301, 86.368 276.489 C 85.616 275.460, 85 273.691, 85.001 272.559 C 85.001 270.674, 84.403 270.500, 77.922 270.500 C 74.029 270.500, 70.766 270.573, 70.672 270.663 M 153.250 270.732 C 150.912 270.943, 149 271.389, 149 271.724 C 149 272.058, 151.084 275.677, 153.632 279.764 C 158.144 287.003, 158.248 287.351, 157.640 293.170 C 157.083 298.495, 157.205 299.108, 158.758 298.813 C 159.805 298.615, 160.626 297.390, 160.816 295.741 C 161.129 293.035, 161.821 292.599, 165.250 292.948 C 166.622 293.087, 167 292.358, 167 289.573 C 167 287.062, 168.338 283.934, 171.561 278.905 C 174.070 274.991, 175.982 271.652, 175.811 271.485 C 175.640 271.318, 173.560 271.043, 171.189 270.874 C 167.250 270.593, 166.695 270.854, 164.773 273.890 L 162.669 277.213 160.857 274.856 C 159.860 273.560, 159.034 271.938, 159.022 271.250 C 159.010 270.563, 158.662 270.079, 158.250 270.175 C 157.838 270.271, 155.588 270.522, 153.250 270.732 M 199 281.743 L 199 293 203.500 293 C 207.945 293, 208 292.959, 208 289.622 C 208 283.899, 210.156 283.472, 213.374 288.559 C 216.133 292.920, 216.281 293, 221.592 293 C 224.566 293, 226.995 292.663, 226.989 292.250 C 226.983 291.837, 224.936 288.575, 222.439 285.001 L 217.900 278.501 221.450 275.654 C 223.403 274.087, 225 272.443, 225 272 C 225 271.556, 222.655 271.035, 219.789 270.842 C 214.922 270.513, 214.363 270.721, 211.316 273.995 L 208.054 277.500 208.027 274.351 C 208.001 271.343, 207.798 271.185, 203.500 270.843 L 199 270.486 199 281.743 M 327.313 271.102 C 322.945 272.366, 320 276.388, 320 281.088 C 320 286.015, 321.602 289.449, 324.665 291.088 C 326.812 292.237, 327.031 292.858, 326.467 296.198 C 325.823 300.009, 326.262 300.528, 329.750 300.075 C 330.438 299.985, 331 300.607, 331 301.456 C 331 302.305, 331.675 303, 332.500 303 C 333.587 303, 334 301.882, 334 298.941 C 334 296.464, 334.393 295.125, 335.010 295.506 C 335.565 295.849, 337.201 295.201, 338.645 294.065 C 340.088 292.929, 341.844 292, 342.546 292 C 343.248 292, 344.987 290.615, 346.411 288.923 C 349.718 284.993, 349.966 278.498, 346.955 274.669 C 343.677 270.503, 334.897 268.908, 327.313 271.102 M 114.147 279.396 C 114.541 288.778, 115.967 291.412, 121.419 292.833 C 124.075 293.526, 124.507 294.102, 124.553 297.003 C 124.606 300.356, 126.230 302.055, 127.467 300.053 C 128.206 298.858, 130.132 298.603, 129.750 299.750 C 129.613 300.163, 129.929 300.500, 130.453 300.500 C 130.978 300.500, 131.282 299.057, 131.131 297.294 C 130.890 294.499, 131.280 293.910, 134.177 292.699 C 139.151 290.620, 139.763 289.291, 140.147 279.750 L 140.500 271 135.794 271 L 131.088 271 130.794 278.145 C 130.574 283.502, 130.083 285.552, 128.834 286.337 C 125.640 288.344, 124 285.473, 124 277.878 L 124 271 118.897 271 L 113.795 271 114.147 279.396 M 236 284.500 C 236 291.925, 235.966 298.326, 235.925 298.725 C 235.884 299.124, 236.305 299.602, 236.861 299.787 C 237.417 299.972, 238.013 298.409, 238.186 296.312 C 238.436 293.271, 238.905 292.500, 240.500 292.500 C 242.180 292.500, 242.549 293.269, 242.807 297.314 C 242.987 300.128, 243.553 301.982, 244.169 301.777 C 244.819 301.560, 245.404 295.581, 245.693 286.213 L 246.161 271 241.081 271 L 236 271 236 284.500 M 255 288 C 255 302.807, 255.203 305, 256.576 305 C 257.789 305, 258.112 304.023, 257.983 300.750 C 257.651 292.379, 257.133 292.883, 265.750 293.208 L 273.500 293.500 273.500 296.907 C 273.500 298.781, 274.063 300.506, 274.750 300.740 C 275.632 301.041, 276 299.799, 276 296.524 C 276 293.684, 276.388 292.122, 277 292.500 C 277.550 292.840, 278 294.441, 278 296.059 C 278 297.677, 278.450 299, 279 299 C 279.564 299, 280 296.167, 280 292.500 L 280 286 272.250 285.807 C 264.591 285.617, 264.574 285.610, 270.750 285.260 L 277 284.905 277 281.547 C 277 278.208, 276.979 278.193, 273 278.727 C 270.213 279.101, 269 278.891, 269 278.035 C 269 277.182, 270.526 276.913, 274.001 277.153 L 279.001 277.500 279.001 274.250 L 279 271 267 271 L 255 271 255 288 M 288.594 274.196 C 288.681 277.135, 288.962 277.396, 292.094 277.446 L 295.500 277.500 295.784 288.250 C 295.944 294.303, 296.490 299, 297.034 299 C 297.565 299, 298 297.861, 298 296.469 C 298 294.099, 300.384 292.051, 301.659 293.325 C 301.973 293.640, 302.231 296.142, 302.231 298.885 C 302.231 303.568, 302.350 303.800, 304.180 302.686 C 305.824 301.686, 306.101 300.483, 305.953 295 C 305.857 291.425, 305.828 285.913, 305.889 282.750 L 306 277 309.500 277 C 312.722 277, 313 276.762, 313 274 L 313 271 300.750 271 L 288.500 271 288.594 274.196 M 331.200 278.200 C 329.208 280.192, 329.750 284.796, 332.126 286.068 C 335.387 287.812, 339 285.791, 339 282.221 C 339 278.870, 337.388 277, 334.500 277 C 333.345 277, 331.860 277.540, 331.200 278.200 M 330.195 295.500 C 330.215 297.150, 330.439 297.704, 330.693 296.731 C 330.947 295.758, 330.930 294.408, 330.656 293.731 C 330.382 293.054, 330.175 293.850, 330.195 295.500" stroke="none" fill="#8852fe" fill-rule="evenodd"/><path d="M -0 208.502 L -0 417.005 208.750 416.752 L 417.500 416.500 417.752 208.250 L 418.005 0 209.002 0 L 0 0 -0 208.502 M 0.491 209 C 0.491 323.675, 0.607 370.587, 0.750 313.250 C 0.893 255.912, 0.893 162.087, 0.750 104.750 C 0.607 47.412, 0.491 94.325, 0.491 209 M 262.679 102.265 C 261.826 104.061, 260.683 106.705, 260.137 108.140 C 259.402 110.072, 258.179 110.932, 255.426 111.448 C 251.246 112.232, 248.906 113.564, 241 119.658 C 237.975 121.989, 233.775 124.617, 231.667 125.496 C 228.494 126.821, 228.042 127.346, 229.040 128.548 C 229.703 129.347, 231.090 130, 232.122 130 C 233.155 130, 234 130.587, 234 131.304 C 234 134.905, 220.106 144, 214.605 144 C 211.622 144, 210.979 146.908, 213.500 149 C 214.325 149.685, 215 150.578, 215 150.986 C 215 152.591, 202.741 157.167, 198.439 157.167 C 192.962 157.167, 192.611 158.900, 197.216 163.202 C 200.193 165.982, 200.880 166.176, 206.466 165.811 C 219.440 164.962, 231.805 154.639, 243.970 134.500 C 251.628 121.821, 259.387 115.314, 265.636 116.328 C 267.466 116.625, 269.202 116.481, 269.495 116.008 C 270.759 113.963, 288.662 120.749, 294.632 125.536 L 297.500 127.836 294.640 130.837 C 292.189 133.410, 291.261 133.759, 288.140 133.281 C 286.138 132.974, 283.970 132.307, 283.322 131.798 C 282.574 131.212, 281.112 131.407, 279.322 132.333 C 273.878 135.146, 269.670 134.826, 266.452 131.354 C 264.053 128.765, 264 128.755, 264 130.920 C 264 137.620, 268.603 139.737, 276.734 136.776 C 282.313 134.744, 282.739 134.723, 285.945 136.323 C 287.794 137.245, 289.746 138, 290.282 138 C 291.412 138, 299.097 131.315, 300.340 129.251 C 302.145 126.253, 291.083 118.123, 278.276 113.035 C 273.753 111.238, 269.669 109.257, 269.201 108.634 C 268.733 108.010, 267.803 105.588, 267.135 103.250 C 266.467 100.912, 265.539 99, 265.074 99 C 264.609 99, 263.531 100.469, 262.679 102.265 M 264 144.393 C 264 144.609, 264.728 148.309, 265.619 152.614 C 268.418 166.147, 266.272 175.877, 258.527 184.771 L 254.808 189.043 250.654 184.882 L 246.500 180.722 245.917 191.611 C 245.596 197.600, 244.528 205.650, 243.544 209.500 C 241.896 215.949, 241.863 217.601, 243.127 230.500 L 244.500 244.500 248.388 244.819 L 252.276 245.137 251.715 240.819 C 251.407 238.443, 250.634 232.675, 249.998 228 C 247.869 212.351, 250.186 205.071, 260.657 194.500 C 270.406 184.657, 271.503 182.025, 271.487 168.500 C 271.476 158.473, 271.210 156.904, 268.487 150.761 C 266.844 147.055, 265.163 144.017, 264.750 144.011 C 264.337 144.005, 264 144.177, 264 144.393 M 163.132 166.500 C 159.727 169.576, 158.606 170.003, 153.879 170.022 C 146.756 170.051, 140.925 172.813, 133.956 179.461 C 130.178 183.064, 126.906 185.218, 124.033 185.991 C 118.465 187.490, 119.949 189.165, 127.390 189.782 C 134.546 190.376, 141.680 188.662, 151.500 183.989 C 158.864 180.485, 159.721 179.757, 162.274 174.841 C 163.799 171.903, 165.978 168.037, 167.116 166.250 C 169.823 161.997, 167.989 162.112, 163.132 166.500 M 267.266 194.919 L 263.116 199.737 266.144 202.618 C 271.679 207.886, 271.669 208.420, 265.886 215.547 C 263.007 219.096, 260.328 222, 259.932 222 C 258.319 222, 258.056 225.436, 259.500 227.641 C 261.349 230.462, 262.020 230.543, 264.566 228.250 C 265.635 227.287, 269.433 224.030, 273.005 221.011 C 280.998 214.257, 283.997 210.967, 283.999 208.954 C 284 207.292, 274.982 193.060, 272.759 191.215 C 271.711 190.345, 270.505 191.158, 267.266 194.919 M 184.835 195.250 C 180.132 201.247, 178.447 202.555, 170.211 206.598 C 164.701 209.304, 163.043 210.583, 163.419 211.839 C 163.693 212.752, 165.086 219.575, 166.515 227 C 169.900 244.595, 170.166 245.207, 174.257 244.813 C 176.041 244.641, 177.429 244.050, 177.343 243.500 C 175.471 231.593, 174 220.245, 174 217.718 C 174 214.952, 174.601 214.174, 178.250 212.218 C 180.588 210.964, 184.237 208.377, 186.360 206.469 C 188.484 204.561, 190.332 203, 190.468 203 C 190.604 203, 193.737 204.575, 197.431 206.500 C 203.789 209.814, 204.673 210, 214.073 210 C 219.533 210, 224 209.617, 224 209.149 C 224 208.681, 223.506 206.881, 222.902 205.149 C 221.820 202.046, 221.707 202, 215.152 201.976 C 207.454 201.949, 199.419 199.084, 193.178 194.141 C 190.997 192.413, 188.977 191, 188.690 191 C 188.403 191, 186.668 192.912, 184.835 195.250 M 189.898 209.761 C 187.679 215.584, 187.820 218.355, 191.004 231.518 L 194.266 245 197.633 245 C 199.485 245, 200.999 244.662, 200.999 244.250 C 200.998 243.838, 200.323 239.675, 199.500 235 C 197.403 223.097, 197.556 220.316, 200.500 216.818 C 203.617 213.113, 203.649 212, 200.640 212 C 199.341 212, 196.628 210.880, 194.611 209.511 L 190.942 207.021 189.898 209.761 M 70.672 270.663 C 70.577 270.753, 70.639 276.267, 70.809 282.917 C 71.089 293.870, 71.277 294.930, 72.809 294.187 C 75.645 292.812, 77.484 293.386, 77.820 295.750 C 77.995 296.988, 78.558 298, 79.070 298 C 79.581 298, 80.037 294.512, 80.082 290.250 L 80.163 282.500 81.673 285.967 C 82.503 287.874, 83.336 290.574, 83.522 291.967 C 83.709 293.360, 83.908 294.725, 83.963 295 C 84.018 295.275, 84.726 294.624, 85.536 293.554 C 86.714 291.996, 87.256 291.857, 88.254 292.860 C 88.939 293.548, 89.500 295.099, 89.500 296.306 C 89.500 297.513, 89.939 298.614, 90.475 298.754 C 91.011 298.893, 91.493 296.643, 91.547 293.754 C 91.600 290.864, 92.381 287.150, 93.282 285.500 L 94.920 282.500 94.960 289.250 C 94.983 293.057, 95.436 296, 96 296 C 96.550 296, 97 295.325, 97 294.500 C 97 293.452, 98.056 293, 100.500 293 L 104 293 104 283.082 C 104 277.627, 104.230 272.564, 104.511 271.832 C 104.909 270.796, 103.355 270.500, 97.511 270.500 C 90.921 270.500, 90 270.723, 90 272.316 C 90 273.314, 89.491 275.083, 88.868 276.246 C 87.773 278.294, 87.693 278.301, 86.368 276.489 C 85.616 275.460, 85 273.691, 85.001 272.559 C 85.001 270.674, 84.403 270.500, 77.922 270.500 C 74.029 270.500, 70.766 270.573, 70.672 270.663 M 153.250 270.732 C 150.912 270.943, 149 271.389, 149 271.724 C 149 272.058, 151.084 275.677, 153.632 279.764 C 158.144 287.003, 158.248 287.351, 157.640 293.170 C 157.083 298.495, 157.205 299.108, 158.758 298.813 C 159.805 298.615, 160.626 297.390, 160.816 295.741 C 161.129 293.035, 161.821 292.599, 165.250 292.948 C 166.622 293.087, 167 292.358, 167 289.573 C 167 287.062, 168.338 283.934, 171.561 278.905 C 174.070 274.991, 175.982 271.652, 175.811 271.485 C 175.640 271.318, 173.560 271.043, 171.189 270.874 C 167.250 270.593, 166.695 270.854, 164.773 273.890 L 162.669 277.213 160.857 274.856 C 159.860 273.560, 159.034 271.938, 159.022 271.250 C 159.010 270.563, 158.662 270.079, 158.250 270.175 C 157.838 270.271, 155.588 270.522, 153.250 270.732 M 199 281.743 L 199 293 203.500 293 C 207.945 293, 208 292.959, 208 289.622 C 208 283.899, 210.156 283.472, 213.374 288.559 C 216.133 292.920, 216.281 293, 221.592 293 C 224.566 293, 226.995 292.663, 226.989 292.250 C 226.983 291.837, 224.936 288.575, 222.439 285.001 L 217.900 278.501 221.450 275.654 C 223.403 274.087, 225 272.443, 225 272 C 225 271.556, 222.655 271.035, 219.789 270.842 C 214.922 270.513, 214.363 270.721, 211.316 273.995 L 208.054 277.500 208.027 274.351 C 208.001 271.343, 207.798 271.185, 203.500 270.843 L 199 270.486 199 281.743 M 327.313 271.102 C 322.945 272.366, 320 276.388, 320 281.088 C 320 286.015, 321.602 289.449, 324.665 291.088 C 326.812 292.237, 327.031 292.858, 326.467 296.198 C 325.823 300.009, 326.262 300.528, 329.750 300.075 C 330.438 299.985, 331 300.607, 331 301.456 C 331 302.305, 331.675 303, 332.500 303 C 333.587 303, 334 301.882, 334 298.941 C 334 296.464, 334.393 295.125, 335.010 295.506 C 335.565 295.849, 337.201 295.201, 338.645 294.065 C 340.088 292.929, 341.844 292, 342.546 292 C 343.248 292, 344.987 290.615, 346.411 288.923 C 349.718 284.993, 349.966 278.498, 346.955 274.669 C 343.677 270.503, 334.897 268.908, 327.313 271.102 M 114.147 279.396 C 114.541 288.778, 115.967 291.412, 121.419 292.833 C 124.075 293.526, 124.507 294.102, 124.553 297.003 C 124.606 300.356, 126.230 302.055, 127.467 300.053 C 128.206 298.858, 130.132 298.603, 129.750 299.750 C 129.613 300.163, 129.929 300.500, 130.453 300.500 C 130.978 300.500, 131.282 299.057, 131.131 297.294 C 130.890 294.499, 131.280 293.910, 134.177 292.699 C 139.151 290.620, 139.763 289.291, 140.147 279.750 L 140.500 271 135.794 271 L 131.088 271 130.794 278.145 C 130.574 283.502, 130.083 285.552, 128.834 286.337 C 125.640 288.344, 124 285.473, 124 277.878 L 124 271 118.897 271 L 113.795 271 114.147 279.396 M 236 284.500 C 236 291.925, 235.966 298.326, 235.925 298.725 C 235.884 299.124, 236.305 299.602, 236.861 299.787 C 237.417 299.972, 238.013 298.409, 238.186 296.312 C 238.436 293.271, 238.905 292.500, 240.500 292.500 C 242.180 292.500, 242.549 293.269, 242.807 297.314 C 242.987 300.128, 243.553 301.982, 244.169 301.777 C 244.819 301.560, 245.404 295.581, 245.693 286.213 L 246.161 271 241.081 271 L 236 271 236 284.500 M 255 288 C 255 302.807, 255.203 305, 256.576 305 C 257.789 305, 258.112 304.023, 257.983 300.750 C 257.651 292.379, 257.133 292.883, 265.750 293.208 L 273.500 293.500 273.500 296.907 C 273.500 298.781, 274.063 300.506, 274.750 300.740 C 275.632 301.041, 276 299.799, 276 296.524 C 276 293.684, 276.388 292.122, 277 292.500 C 277.550 292.840, 278 294.441, 278 296.059 C 278 297.677, 278.450 299, 279 299 C 279.564 299, 280 296.167, 280 292.500 L 280 286 272.250 285.807 C 264.591 285.617, 264.574 285.610, 270.750 285.260 L 277 284.905 277 281.547 C 277 278.208, 276.979 278.193, 273 278.727 C 270.213 279.101, 269 278.891, 269 278.035 C 269 277.182, 270.526 276.913, 274.001 277.153 L 279.001 277.500 279.001 274.250 L 279 271 267 271 L 255 271 255 288 M 288.594 274.196 C 288.681 277.135, 288.962 277.396, 292.094 277.446 L 295.500 277.500 295.784 288.250 C 295.944 294.303, 296.490 299, 297.034 299 C 297.565 299, 298 297.861, 298 296.469 C 298 294.099, 300.384 292.051, 301.659 293.325 C 301.973 293.640, 302.231 296.142, 302.231 298.885 C 302.231 303.568, 302.350 303.800, 304.180 302.686 C 305.824 301.686, 306.101 300.483, 305.953 295 C 305.857 291.425, 305.828 285.913, 305.889 282.750 L 306 277 309.500 277 C 312.722 277, 313 276.762, 313 274 L 313 271 300.750 271 L 288.500 271 288.594 274.196 M 331.200 278.200 C 329.208 280.192, 329.750 284.796, 332.126 286.068 C 335.387 287.812, 339 285.791, 339 282.221 C 339 278.870, 337.388 277, 334.500 277 C 333.345 277, 331.860 277.540, 331.200 278.200 M 330.195 295.500 C 330.215 297.150, 330.439 297.704, 330.693 296.731 C 330.947 295.758, 330.930 294.408, 330.656 293.731 C 330.382 293.054, 330.175 293.850, 330.195 295.500" stroke="none" fill="#050506" fill-rule="evenodd"/></svg>